<svg id="visual" viewBox="0 0 900 600" width="900" height="600" xmlns="http://www.w3.org/2000/svg" xmlns:xlink="http://www.w3.org/1999/xlink" version="1.1"><path d="M0 85L50 80C100 75 200 65 300 62C400 59 500 63 600 66C700 69 800 71 850 72L900 73L900 0L850 0C800 0 700 0 600 0C500 0 400 0 300 0C200 0 100 0 50 0L0 0Z" fill="#265fb6"></path><path d="M0 145L50 140C100 135 200 125 300 128C400 131 500 147 600 160C700 173 800 183 850 188L900 193L900 71L850 70C800 69 700 67 600 64C500 61 400 57 300 60C200 63 100 73 50 78L0 83Z" fill="#4a8df6"></path><path d="M0 313L50 313C100 313 200 313 300 324C400 335 500 357 600 368C700 379 800 379 850 379L900 379L900 191L850 186C800 181 700 171 600 158C500 145 400 129 300 126C200 123 100 133 50 138L0 143Z" fill="#79aafa"></path><path d="M0 547L50 540C100 533 200 519 300 514C400 509 500 513 600 510C700 507 800 497 850 492L900 487L900 377L850 377C800 377 700 377 600 366C500 355 400 333 300 322C200 311 100 311 50 311L0 311Z" fill="#4a8df6"></path><path d="M0 601L50 601C100 601 200 601 300 601C400 601 500 601 600 601C700 601 800 601 850 601L900 601L900 485L850 490C800 495 700 505 600 508C500 511 400 507 300 512C200 517 100 531 50 538L0 545Z" fill="#265fb6"></path></svg>