<svg fill="#f0c034" xmlns="http://www.w3.org/2000/svg" width="800" height="800" viewBox="0 0 191.28 191.28" xml:space="preserve"><path d="M187.615 67.099c-18.261-1.48-49.459 6.528-61.798-10.404-12.095-16.599-11.648-38.771-25.748-54.728C98.638.348 95.301.615 94.385 2.7c-3.775 8.592-6.913 17.474-10.203 26.278-.349.28-.539.734-.435 1.154-4.551 12.107-9.466 24.029-16.891 34.76-.078.113-.09.228-.145.343-9.085.722-18.084 2.282-27.295 2.531-11.593.314-23.146.307-34.413 3.336-1.645.442-2.317 2.088-2.134 3.559-2.499-.105-4.163 3.334-1.549 4.879 18.271 10.793 34.774 24.068 51.71 36.796-11.152 22.005-18.989 45.282-21.235 69.982-.245 2.687 2.772 4.551 5.145 3.919 22.472-5.988 42.625-18.308 60.961-32.378-.338 1.532.074 3.155 1.763 3.872 17.967 7.616 35.714 20.654 55.214 23.914 2.448.409 5.635-1.097 5.345-4.07-1.978-20.264-5.921-42.021-13.185-61.086-.628-1.648-1.854-2.45-3.128-2.62.06-.02.116-.007.176-.032 10.021-4.178 18.597-12.24 26.264-19.725 2.162-2.112 5.022-4.761 7.809-7.7 1.191.026 2.047-1.089 2.023-2.219 3.756-4.266 7.002-8.976 7.64-13.483 4.712.053 4.575-7.224-.207-7.611zM175.692 79.74c-.685.883-1.439 1.709-2.151 2.57-1.506-.967-3.012-1.932-4.364-3.02-1.661-1.337-3.269-2.747-4.863-4.17 5.097-.162 10.153-.429 14.977-.508-1.247 1.684-2.349 3.515-3.599 5.128zM98.394 11.854c2.96 4.768 5.091 10.342 6.992 16.138-3.47-2.358-7.003-4.652-10.442-7.023 1.136-3.067 2.272-6.12 3.45-9.115zm-4.708 12.481c4.334 3.429 8.821 7.017 13.615 9.701.883 2.867 1.758 5.742 2.69 8.561-2.596-1.617-5.562-2.931-7.913-4.324-3.722-2.206-7.367-4.497-11.131-6.593.932-2.447 1.833-4.897 2.739-7.345zM90 34.176c3.012 1.816 6 3.671 8.946 5.599 3.976 2.603 8.378 7.189 13.084 8.511 2.419 6.259 5.392 11.987 9.781 16.351-11.32-8.491-23.102-16.246-35.12-22.399A215.516 215.516 0 0 0 90 34.176zM71.577 70.448c23.832 16.389 45.888 34.518 68.243 52.877.618 3.55 1.342 7.072 2.118 10.577-9.698-11.462-24.689-20.669-36.351-29.763-13.508-10.533-27.16-20.958-41.229-30.744 2.564-.672 5-1.623 7.219-2.947zM40.614 180.614c.456-3.533 1.069-7.028 1.753-10.505a65.812 65.812 0 0 0 4.054 5.783c.48.614 1.044 1.327 1.674 2.038-2.465.97-4.957 1.869-7.481 2.684zm12.451-4.792c-1.179-1.04-2.403-2.055-3.378-3.195-2.282-2.673-4.199-5.663-6.027-8.678.398-1.687.836-3.361 1.284-5.032 2.583 2.276 5.165 4.557 7.762 6.812 2.295 1.992 5.412 5.317 8.622 6.132-2.72 1.392-5.466 2.734-8.263 3.961zm11.18-5.465c-.02-.213-.051-.427-.186-.623-2.125-3.104-6.864-5.05-9.844-7.362-2.81-2.181-5.502-4.573-8.352-6.724 1.086-3.772 2.322-7.499 3.639-11.199a178.094 178.094 0 0 1 9.935 8.244c3.693 3.299 7.49 7.542 11.959 9.738.792.39 1.495.176 1.932-.294.641.678 1.356 1.315 2.168 1.58-3.684 2.328-7.417 4.58-11.251 6.64zm13.67-8.178c-.084-.203-.209-.385-.415-.495-.467-.249-.791-.352-1.323-.342-.622.011-1.182-.725-1.597-1.099-.369-.332-.782-.36-1.129-.228-.031-.047-.044-.098-.081-.144-3.308-4.201-8.375-7.646-12.507-11.041a156.45 156.45 0 0 0-10.135-7.635c.987-2.63 2.106-5.214 3.191-7.81 5.658 5.315 11.327 10.617 16.916 16.005 3.229 3.112 6.485 6.197 9.7 9.324.324.315.649.669.975 1.013-1.201.815-2.379 1.66-3.595 2.452zm8.252-5.626c-3.727-3.919-9.149-7.529-12.22-10.274-6.125-5.473-12.368-10.847-18.741-16.043a241.058 241.058 0 0 1 3.859-8.367c10.927 10.216 21.698 20.707 33.439 29.982-2.092 1.587-4.188 3.174-6.337 4.702zm16.457-1.846c-.386-.143-.747-.147-1.106-.151 1.097-2.469-1.55-5.302-4.43-5.175-12.695-9.659-24.146-20.724-36.29-31.03.199-.394.382-.794.584-1.187 1.059-2.052.391-4.063-1.41-5.375C43.053 99.467 26.668 86.438 7.965 76.947c4.268-.509 8.534-.819 12.802-1.063 40.475 30.577 77.293 66 118.237 95.956-12.305-5.281-24.135-12.614-36.38-17.133zm48.014 18.564c-42.208-32.427-81.971-68.206-126.434-97.577 4.433-.2 8.877-.304 13.327-.386 15.744 14.746 33.533 27.58 50.332 41.033 19.979 16 39.048 32.935 58.312 49.767 1.07.935 2.304.856 3.24.299.445 2.277.861 4.563 1.223 6.864zm-2.457-12.813c-30.943-31.204-68.316-61.106-105.515-85.242.343-.005.684-.013 1.027-.018 4.765-.068 10.048-.06 15.152-.726 15.94 11.87 31.48 24.192 46.805 36.845 11.033 9.107 22.211 21.428 34.933 28.034 1.018.529 1.928.342 2.562-.185 1.671 7.101 3.466 14.167 5.036 21.292zm-6.775-47.223c-1.748 1.352-.501 4.226 1.373 4.672-.239.041-.452.163-.68.246-19.998-19.63-44.735-35.504-68.801-49.892.144-.858-.051-1.763-.586-2.415 2.321-2.726 4.34-5.67 6.238-8.699 24.301 15.147 44.388 36.145 68.729 51.028a200.445 200.445 0 0 1-6.273 5.06zm10.53-8.759C128.445 87.857 106.33 67.602 80.577 54.53c1.838-3.172 3.494-6.471 5.035-9.84 24.795 16.923 45.325 40.051 70.621 55.823-1.423 1.33-2.84 2.67-4.297 3.963zm12.636-12.14c-1.469 1.533-2.973 3.002-4.475 4.476-10.076-9.188-20.927-18.693-32.31-27.602 3.773 2.19 7.919 3.613 12.282 4.533.019.051.017.101.044.15.137.248.333.483.557.708.105.178.4.428.662.71.841.907 1.879 1.666 2.841 2.438 2.773 2.224 5.531 4.468 8.306 6.691 2.174 1.743 9.244 9.384 12.406 7.13.804-.572 1.354-1.743.699-2.665-1.164-1.642-2.619-2.309-4.314-3.416-2.911-1.899-5.764-3.89-8.62-5.87-2.403-1.665-4.777-3.413-7.236-5.002 4.633.559 9.438.668 14.253.606 2.188 2.334 4.408 4.634 6.744 6.832 1.283 1.207 2.668 2.555 4.136 3.832a227.905 227.905 0 0 1-5.975 6.449z"/></svg>